<svg xmlns="http://www.w3.org/2000/svg" viewBox="0 0 550 470"><g fill="#777"><path d="M134.55 280.168h-25.222c-1.349 0-1.7.645-1.7 1.701v35.193c0 1.056.351 1.701 1.7 1.701h5.807c1.35 0 1.701-.234 1.701-1.76v-13.725h15.25c1.35 0 1.702-.645 1.702-1.7v-4.634c0-1.056-.352-1.701-1.701-1.701h-15.25v-6.863h17.713c1.35 0 1.701-.645 1.701-1.701v-4.81c0-1.056-.352-1.7-1.7-1.7zM174.553 316.886l-8.27-12.024c3.636-1.232 8.153-5.514 8.153-11.672 0-3.754-1.232-7.098-3.402-9.21-2.464-2.463-5.28-3.753-11.673-3.753h-14.78c-1.35 0-1.643.645-1.643 1.7v35.135c0 1.35.586 1.701 1.642 1.701h5.807c1.056 0 1.701-.352 1.701-1.7v-28.624h7.801c3.05 0 5.396 1.935 5.396 4.985 0 2.757-2.698 4.751-5.572 4.751h-1.173c-1.349 0-1.7.645-1.7 1.701v4.693c0 1.642.116 2.287.644 2.991l6.335 9.444c.821 1.231 1.525 1.76 2.933 1.76h6.921c1.115 0 1.408-1.057.88-1.878zM196.725 292.016l8.563 24.988c.47 1.407.939 1.76 2.23 1.76h6.686c1.29 0 1.29-.94.997-1.643l-12.963-35.135c-.528-1.231-1.114-1.818-2.405-1.818h-5.63c-1.291 0-1.936.587-2.405 1.818l-13.022 35.135c-.293.704-.293 1.642.997 1.642h6.394c1.29 0 1.76-.352 2.229-1.76zM255.028 280.11h-5.631c-1.936 0-2.229 1.29-2.64 1.994l-8.094 14.429-8.036-14.43c-.469-.703-.704-1.994-2.698-1.994h-5.807c-1.349 0-1.7.646-1.7 1.701v35.252c0 1.35.645 1.701 1.7 1.701h5.807c1.056 0 1.701-.352 1.701-1.7v-19.885l5.924 10.265c.294.469.763 1.232 1.643 1.232h2.932c.88 0 1.408-.763 1.701-1.232l5.866-10.265v19.884c0 1.35.645 1.701 1.701 1.701h5.63c1.057 0 1.702-.352 1.702-1.7V281.81c0-1.055-.352-1.7-1.701-1.7zM291.746 310.61H265.82c-1.055 0-1.7.352-1.7 1.701v4.81c0 1.349.645 1.7 1.7 1.7h25.926c1.056 0 1.701-.351 1.701-1.7v-4.81c0-1.349-.645-1.7-1.7-1.7zm-2.933-15.25h-20.06c-1.056 0-1.7.352-1.7 1.7v4.81c0 1.35.644 1.702 1.7 1.702h20.06c1.056 0 1.701-.352 1.701-1.701v-4.81c0-1.35-.645-1.701-1.7-1.701zm2.933-15.133H265.82c-1.055 0-1.7.352-1.7 1.7v4.81c0 1.35.645 1.702 1.7 1.702h25.926c1.056 0 1.701-.352 1.701-1.701v-4.81c0-1.35-.645-1.701-1.7-1.701zM315.736 280.168h-13.197c-1.35 0-1.701.645-1.701 1.701v35.193c0 1.35.645 1.701 1.7 1.701h5.807c1.056 0 1.701-.352 1.701-1.7v-9.737h5.631c10.03 0 15.427-5.397 15.427-13.55 0-8.094-5.28-13.608-15.368-13.608zm-.059 19.239h-5.63v-10.968h5.63c4.575 0 6.57 2.463 6.57 5.513 0 2.933-1.995 5.455-6.57 5.455zM367.998 292.544c0-9.267-8.798-13.256-15.778-13.256s-15.661 3.989-15.661 13.256v13.843c0 9.268 8.68 13.256 15.66 13.256s15.779-3.988 15.779-13.256zm-9.209 13.022c0 3.754-2.698 5.924-6.57 5.924-3.812 0-6.51-2.17-6.51-5.924v-12.2c0-3.754 2.698-5.925 6.51-5.925 3.872 0 6.57 2.17 6.57 5.925zM407.12 316.886l-8.27-12.024c3.637-1.232 8.154-5.514 8.154-11.672 0-3.754-1.232-7.098-3.402-9.21-2.464-2.463-5.28-3.753-11.673-3.753h-14.78c-1.35 0-1.643.645-1.643 1.7v35.135c0 1.35.586 1.701 1.642 1.701h5.807c1.056 0 1.7-.352 1.7-1.7v-28.624h7.802c3.05 0 5.396 1.935 5.396 4.985 0 2.757-2.698 4.751-5.572 4.751h-1.173c-1.35 0-1.701.645-1.701 1.701v4.693c0 1.642.117 2.287.645 2.991l6.335 9.444c.821 1.231 1.525 1.76 2.933 1.76h6.921c1.114 0 1.408-1.057.88-1.878zM440.672 280.168h-27.216c-1.35 0-1.701.645-1.701 1.701v4.869c0 1.055.352 1.7 1.7 1.7h9.034v28.624c0 1.35.645 1.701 1.7 1.701h5.807c1.056 0 1.701-.352 1.701-1.7v-28.624h8.975c1.349 0 1.7-.646 1.7-1.701v-4.869c0-1.056-.351-1.7-1.7-1.7z"/></g><path fill="#4682B4" d="M349.826 236.98V115.017L219.511 115l.071 120.421 16.887-14.362.232-90.514c0-.501.394-.912.895-.912h93.841c.501 0 .895.393.895.894l.071 121.046zm-19.339 15.616-.07-120.423-16.886 14.364-.232 90.53c0 .5-.396.894-.895.894h-93.841a.887.887 0 0 1-.895-.894l-.071-121.047-17.423 14.596v121.98zm-18.28-107.276h-73.753l.036-13.899h90.065zm-74.414 76.955h73.752l-.035 13.898h-90.067z"/></svg>
